<?xml version="1.0" encoding="UTF-8"?>
<svg version="1.1" xmlns="http://www.w3.org/2000/svg" width="1024" height="1024">
<path d="M0 0 C4.13560001 0.03163847 6.16671602 0.08483731 9.33203125 2.81640625 C11.41454231 5.70399061 13.19760169 8.64471064 14.9375 11.75 C16.01242111 13.44287093 17.09573143 15.13044508 18.1875 16.8125 C18.74566406 17.70195312 19.30382812 18.59140625 19.87890625 19.5078125 C22.58196692 23.76500482 25.34467254 27.98046976 28.125 32.1875 C28.63643555 32.96939697 29.14787109 33.75129395 29.67480469 34.55688477 C30.16754883 35.29994873 30.66029297 36.0430127 31.16796875 36.80859375 C31.60520264 37.47173584 32.04243652 38.13487793 32.49291992 38.81811523 C34.13063644 41.00828776 35.96683056 42.85833642 37.9375 44.75 C38.28384491 44.22826202 38.63018982 43.70652405 38.98703003 43.16897583 C42.58541634 37.74930884 46.18702376 32.33179318 49.79052734 26.91552734 C51.13576021 24.89264276 52.48016488 22.86920718 53.82373047 20.84521484 C55.75271716 17.93963415 57.68465293 15.03603429 59.6171875 12.1328125 C60.21933075 11.22443634 60.821474 10.31606018 61.44186401 9.38015747 C62.00229401 8.53943695 62.562724 7.69871643 63.14013672 6.83251953 C63.87960037 5.71999313 63.87960037 5.71999313 64.63400269 4.58499146 C65.9375 2.75 65.9375 2.75 67.9375 0.75 C72.2275 0.75 76.5175 0.75 80.9375 0.75 C80.9375 31.77 80.9375 62.79 80.9375 94.75 C75.6575 94.75 70.3775 94.75 64.9375 94.75 C64.6075 75.28 64.2775 55.81 63.9375 35.75 C59.9775 41.69 56.0175 47.63 51.9375 53.75 C50.07544922 56.48216797 50.07544922 56.48216797 48.17578125 59.26953125 C47.42844727 60.3668457 47.42844727 60.3668457 46.66601562 61.48632812 C45.68471709 62.92511481 44.69730817 64.35974574 43.70507812 65.79101562 C41.26100849 69.40016772 39.31479858 72.28383778 38.9375 76.75 C34.67026071 72.82106437 31.69163929 68.59160429 28.625 63.6875 C27.65953043 62.1688407 26.69338012 60.65061395 25.7265625 59.1328125 C25.25508789 58.3893457 24.78361328 57.64587891 24.29785156 56.87988281 C21.25644639 52.11799862 18.08611022 47.4413591 14.9375 42.75 C13.6175 40.77 12.2975 38.79 10.9375 36.75 C10.9375 55.56 10.9375 74.37 10.9375 93.75 C6.67324865 94.46070856 3.28606356 94.86400687 -0.9375 94.8125 C-2.38769531 94.79896484 -2.38769531 94.79896484 -3.8671875 94.78515625 C-4.59164063 94.77355469 -5.31609375 94.76195312 -6.0625 94.75 C-6.0625 94.09 -6.0625 93.43 -6.0625 92.75 C-6.7225 92.42 -7.3825 92.09 -8.0625 91.75 C-7.81886719 90.51830078 -7.81886719 90.51830078 -7.5703125 89.26171875 C-7.00356353 85.34243165 -6.91566131 81.51166252 -6.9375 77.5625 C-6.93169922 76.49612305 -6.93169922 76.49612305 -6.92578125 75.40820312 C-6.93171506 72.25438116 -7.05806465 69.76330605 -8.0625 66.75 C-7.75031782 65.07924233 -7.41385167 63.41296148 -7.0625 61.75 C-6.98272077 59.73145689 -6.95478564 57.71052371 -6.96484375 55.69042969 C-6.96814697 54.49278992 -6.9714502 53.29515015 -6.97485352 52.06121826 C-6.98730103 50.13599335 -6.98730103 50.13599335 -7 48.171875 C-7.00440777 46.83620378 -7.00822382 45.50053049 -7.01147461 44.16485596 C-7.02286812 39.94320706 -7.04213813 35.7216139 -7.0625 31.5 C-7.08285682 27.2641042 -7.10206919 23.02822778 -7.11352539 18.79229736 C-7.12109712 16.15584606 -7.13320769 13.51940337 -7.15014648 10.88299561 C-7.15344971 9.69796448 -7.15675293 8.51293335 -7.16015625 7.29199219 C-7.16801147 5.71910431 -7.16801147 5.71910431 -7.17602539 4.11444092 C-6.95846518 -0.4167768 -3.99541095 0.31192646 0 0 Z " fill="#4A49F3" transform="translate(392.0625,451.25)"/>
<path d="M0 0 C3.28754511 0.57889381 4.93672495 1.54828411 7.25 3.9375 C8.03117187 4.72447266 8.03117187 4.72447266 8.828125 5.52734375 C10 7 10 7 10 9 C10.66 9 11.32 9 12 9 C12 9.66 12 10.32 12 11 C12.66 11 13.32 11 14 11 C13.52794881 15.24846075 11.11122478 17.26819288 8 20 C7.34 20 6.68 20 6 20 C5.74476563 20.57975586 5.48953125 21.15951172 5.2265625 21.75683594 C3.87415223 24.23015312 2.36267476 25.89602109 0.375 27.890625 C-0.68460938 28.95410156 -0.68460938 28.95410156 -1.765625 30.0390625 C-2.50296875 30.76867187 -3.2403125 31.49828125 -4 32.25 C-4.73734375 32.99507813 -5.4746875 33.74015625 -6.234375 34.5078125 C-6.94078125 35.21164062 -7.6471875 35.91546875 -8.375 36.640625 C-9.02210938 37.28547852 -9.66921875 37.93033203 -10.3359375 38.59472656 C-12 40 -12 40 -14 40 C-14.33 40.99 -14.66 41.98 -15 43 C-15.66 43 -16.32 43 -17 43 C-17.33 43.99 -17.66 44.98 -18 46 C-19.62976348 47.72490975 -21.28804142 49.360152 -23 51 C-24.23865842 52.24443543 -25.4741009 53.49207672 -26.70703125 54.7421875 C-28.0754682 56.11984395 -29.44395897 57.49744694 -30.8125 58.875 C-31.48603516 59.55691406 -32.15957031 60.23882812 -32.85351562 60.94140625 C-36.86505336 64.97213795 -40.97510768 68.81571609 -45.29370117 72.51635742 C-47.29209975 74.25398343 -49.16633426 76.08993152 -51 78 C-49.50688212 81.48862716 -47.51724585 83.71518623 -44.82568359 86.36962891 C-43.53457169 87.65083115 -43.53457169 87.65083115 -42.21737671 88.95791626 C-41.28712677 89.87156952 -40.35687683 90.78522278 -39.3984375 91.7265625 C-38.43664594 92.67954051 -37.47544194 93.63311185 -36.51480103 94.58724976 C-33.47376097 97.60547739 -30.42494288 100.61577253 -27.375 103.625 C-23.8337237 107.11912031 -20.29568628 110.61639324 -16.76594925 114.12217331 C-15.34958888 115.52553639 -13.92718441 116.9227908 -12.50473022 118.31997681 C-11.2230748 119.59172256 -11.2230748 119.59172256 -9.91552734 120.88916016 C-9.15766937 121.63654449 -8.3998114 122.38392883 -7.61898804 123.15396118 C-6 125 -6 125 -6 127 C-5.13375 127.37125 -5.13375 127.37125 -4.25 127.75 C-1.67060021 129.18299988 0.06121592 130.78424676 2 133 C2 133.66 2 134.32 2 135 C2.59554687 135.25652344 3.19109375 135.51304687 3.8046875 135.77734375 C6.19696371 137.10969687 7.42728199 138.43368605 9.125 140.5625 C11.20903634 143.21025666 11.20903634 143.21025666 14 145 C13.4940998 149.23567424 11.1064672 151.35934285 8.1875 154.3125 C7.31480469 155.21613281 6.44210937 156.11976563 5.54296875 157.05078125 C3 159 3 159 1.05382919 158.81078148 C-1.33014647 157.86966947 -2.59239555 156.7849227 -4.40423584 154.97671509 C-5.05762436 154.33178604 -5.71101288 153.68685699 -6.38420105 153.02238464 C-7.08982681 152.31068619 -7.79545258 151.59898773 -8.52246094 150.86572266 C-9.27406998 150.11937057 -10.02567902 149.37301849 -10.80006409 148.60404968 C-13.28577604 146.13155665 -15.76033672 143.64823255 -18.234375 141.1640625 C-19.9545778 139.44587966 -21.6752258 137.72814244 -23.39630127 136.01083374 C-27.00234043 132.40922034 -30.60288962 128.80222845 -34.19970703 125.19140625 C-38.81904082 120.55496796 -43.45172688 115.93214266 -48.08858871 111.31324196 C-51.64378955 107.76886097 -55.19183939 104.21739122 -58.73773956 100.66370773 C-60.44364193 98.95579906 -62.15178953 97.25013003 -63.86217499 95.54671097 C-66.24714237 93.16932956 -68.62233485 90.78260086 -70.99511719 88.39306641 C-71.70883987 87.68541641 -72.42256256 86.97776642 -73.15791321 86.24867249 C-73.80002243 85.59810379 -74.44213165 84.9475351 -75.10369873 84.2772522 C-75.66632793 83.71349192 -76.22895714 83.14973164 -76.80863571 82.56888771 C-78 81 -78 81 -78 78 C-75.79740906 75.6118927 -75.79740906 75.6118927 -73 73 C-71.4131013 71.40395156 -69.82694666 69.80716306 -68.24145508 68.2097168 C-63.73158392 63.66799763 -59.21742665 59.13058294 -54.70000172 54.59637737 C-51.97387033 51.85975137 -49.24966657 49.12125884 -46.52954102 46.37866211 C-43.8891872 43.7166467 -41.24403779 41.05948613 -38.59543419 38.4056797 C-37.58773289 37.3942776 -36.58179615 36.38111428 -35.57764626 35.36618614 C-34.17985067 33.95396047 -32.77527318 32.548457 -31.37036133 31.14331055 C-30.57269852 30.34120651 -29.77503571 29.53910248 -28.95320129 28.71269226 C-27 27 -27 27 -25 27 C-24.7628125 26.43829102 -24.525625 25.87658203 -24.28125 25.29785156 C-22.70680643 22.47417342 -20.78315455 20.52385158 -18.5 18.234375 C-17.613125 17.34492188 -16.72625 16.45546875 -15.8125 15.5390625 C-14.4203125 14.15847656 -14.4203125 14.15847656 -13 12.75 C-12.071875 11.81414062 -11.14375 10.87828125 -10.1875 9.9140625 C-8.8571875 8.58761719 -8.8571875 8.58761719 -7.5 7.234375 C-6.6853125 6.42194336 -5.870625 5.60951172 -5.03125 4.77246094 C-3 3 -3 3 -1 3 C-0.67 2.01 -0.34 1.02 0 0 Z " fill="#4A4AF6" transform="translate(328,418)"/>
<path d="M0 0 C2.93564734 1.32556885 5.01521239 2.76441027 7.29034424 5.03637695 C7.9184903 5.65888336 8.54663635 6.28138977 9.19381714 6.92276001 C10.21017746 7.94519302 10.21017746 7.94519302 11.24707031 8.98828125 C11.96941864 9.70712494 12.69176697 10.42596863 13.43600464 11.16659546 C15.82176741 13.54355666 18.20014173 15.92775779 20.578125 18.3125 C22.2312135 19.9642417 23.88459884 21.61568638 25.53826904 23.2668457 C29.00143318 26.72706096 32.46095261 30.19086931 35.91796875 33.65722656 C40.35911743 38.10978736 44.80920684 42.55328695 49.262043 46.99415588 C52.67644262 50.40134583 56.08608571 53.81326351 59.49428558 57.22665405 C61.13394917 58.86765569 62.77511039 60.50716227 64.41776276 62.14517212 C66.70687313 64.42923004 68.98951868 66.71955444 71.27050781 69.01171875 C71.95617828 69.69334076 72.64184875 70.37496277 73.34829712 71.07723999 C73.96516388 71.6997464 74.58203064 72.32225281 75.21759033 72.96362305 C75.7580965 73.50488327 76.29860268 74.04614349 76.85548782 74.60380554 C78 76 78 76 78 78 C78.66 78 79.32 78 80 78 C80.33 78.99 80.66 79.98 81 81 C80.01 81 79.02 81 78 81 C78 81.66 78 82.32 78 83 C76.390625 84.65625 76.390625 84.65625 74.25 86.5 C73.55390625 87.1084375 72.8578125 87.716875 72.140625 88.34375 C70.14797247 89.88551036 68.25958911 90.91454589 66 92 C57.91035335 83.95660807 49.82605216 75.90788635 41.74861145 67.85223579 C37.99812949 64.11220977 34.24580203 60.37407446 30.48925781 56.64013672 C26.86691172 53.03945453 23.24941331 49.43396828 19.63528442 45.82503891 C18.25266577 44.44612764 16.8682825 43.06898349 15.48214722 41.69360733 C13.54725748 39.7731467 11.61862729 37.84660883 9.69140625 35.91845703 C9.11166046 35.34590179 8.53191467 34.77334656 7.93460083 34.18344116 C4 30.22810432 4 30.22810432 4 28 C2.14940306 27.28891279 2.14940306 27.28891279 0 27 C-2.28873334 28.80319681 -4.20294308 30.56167089 -6.22143555 32.63793945 C-7.14161469 33.55461395 -7.14161469 33.55461395 -8.0803833 34.48980713 C-10.1113756 36.51918046 -12.12395178 38.56584304 -14.13671875 40.61328125 C-15.54006195 42.02341044 -16.94443885 43.4325116 -18.34980774 44.84062195 C-21.2952288 47.79673522 -24.232438 50.76068307 -27.16333008 53.73120117 C-30.92614603 57.54488524 -34.70171956 61.34559464 -38.48257732 65.14138508 C-42.07954483 68.7531271 -45.6712521 72.37007794 -49.26171875 75.98828125 C-50.29501595 77.02894462 -50.29501595 77.02894462 -51.34918785 78.09063148 C-53.29123345 80.04891169 -55.22963518 82.01071865 -57.16674805 83.97387695 C-57.74596512 84.55735397 -58.32518219 85.14083099 -58.92195129 85.74198914 C-61.81274807 88.60640428 -61.81274807 88.60640428 -64 92 C-68.44926052 91.58685438 -70.84100104 88.49538473 -73.75 85.4375 C-74.25660156 84.91736328 -74.76320312 84.39722656 -75.28515625 83.86132812 C-76.53034405 82.58089916 -77.76611502 81.29132446 -79 80 C-74.7507125 74.9256555 -70.30894515 70.16990451 -65.61767578 65.50415039 C-64.90478897 64.79111755 -64.19190216 64.07808472 -63.45741272 63.34344482 C-61.12241086 61.00913443 -58.78389705 58.6783769 -56.4453125 56.34765625 C-54.81699116 54.72120181 -53.18889182 53.09452509 -51.56100464 51.46763611 C-47.29220984 47.20264503 -43.0204196 42.94066664 -38.74798584 38.67932129 C-34.38225097 34.32384678 -30.01937329 29.96551227 -25.65625 25.60742188 C-17.10695118 17.06882253 -8.55448323 8.53340507 0 0 Z " fill="#4A4AF6" transform="translate(238,509)"/>
<path d="M0 0 C2.41235063 0.93054698 3.65288631 2.01186904 5.47393417 3.84184361 C6.45401695 4.81574039 6.45401695 4.81574039 7.45389938 5.80931187 C8.15952515 6.52572346 8.86515091 7.24213505 9.59215927 7.98025608 C10.71957283 9.10701252 10.71957283 9.10701252 11.86976242 10.25653172 C14.35504179 12.74390292 16.82952352 15.24173561 19.30407333 17.73977757 C21.02406109 19.46535984 22.7447119 21.19028143 24.4659996 22.91456699 C28.99686565 27.45689305 33.518651 32.00815597 38.03863144 36.56131077 C42.65163045 41.20498549 47.27312274 45.84019014 51.89391708 50.47610569 C60.9608633 59.5752365 70.01853454 68.68354254 79.06969833 77.79837132 C74.8268839 82.85905437 70.39934668 87.62191132 65.73498154 92.29422092 C64.67287964 93.36377018 64.67287964 93.36377018 63.58932114 94.45492649 C61.2691261 96.78961322 58.94515494 99.1204899 56.62047958 101.45071507 C54.99956329 103.07738788 53.37864757 104.70406127 51.75773239 106.33073521 C48.37137974 109.72755676 44.98273419 113.12207369 41.59289169 116.51541233 C37.24141434 120.87240512 32.8993112 125.23861818 28.55927372 129.60700226 C25.22123184 132.96361196 21.87655533 136.31354921 18.52998543 139.66165447 C16.92507175 141.26960196 15.32266798 142.88005856 13.7227993 144.49302578 C11.49424611 146.73853706 9.25653144 148.97450022 7.01623154 151.20828342 C6.35383972 151.87989002 5.69144791 152.55149662 5.00898361 153.24345493 C4.39929733 153.84757206 3.78961105 154.45168919 3.16144943 155.07411289 C2.63368062 155.60334826 2.10591181 156.13258364 1.56215 156.67785645 C0.06969833 157.79837132 0.06969833 157.79837132 -2.93030167 157.79837132 C-2.93030167 157.13837132 -2.93030167 156.47837132 -2.93030167 155.79837132 C-3.51295792 155.54313694 -4.09561417 155.28790257 -4.69592667 155.02493382 C-7.1441839 153.68096044 -8.74773414 152.18026836 -10.68030167 150.17337132 C-11.29389542 149.54173069 -11.90748917 148.91009007 -12.53967667 148.25930882 C-12.99858292 147.77719944 -13.45748917 147.29509007 -13.93030167 146.79837132 C-12.58336939 143.79297594 -11.09274859 141.71885191 -8.75329971 139.41018772 C-7.78670677 138.44866291 -7.78670677 138.44866291 -6.8005867 137.46771336 C-6.10475983 136.78534611 -5.40893295 136.10297886 -4.69202042 135.39993382 C-3.9742392 134.68735416 -3.25645798 133.97477451 -2.51692581 133.24060154 C-0.22191509 130.96339054 2.07965455 128.69296321 4.38219833 126.42337132 C6.67318539 124.16009684 8.96266733 121.89535187 11.24918747 119.62756443 C12.67104392 118.21785839 14.09556507 116.81083329 15.52314377 115.40692234 C19.2763694 111.69118532 22.74367091 107.90011285 26.06969833 103.79837132 C30.58582737 98.95966164 30.58582737 98.95966164 34.06969833 97.79837132 C34.06969833 97.13837132 34.06969833 96.47837132 34.06969833 95.79837132 C35.51037519 94.59222325 36.95529367 93.39063732 38.42516708 92.22024632 C40.33008442 90.65103643 40.33008442 90.65103643 42.56969833 87.79837132 C45.20033188 84.64161106 47.85849166 82.33746497 51.06969833 79.79837132 C50.19847452 75.17441725 47.42944036 72.75754801 44.17296982 69.56106663 C43.25103836 68.63847805 43.25103836 68.63847805 42.31048203 67.69725132 C40.27761556 65.66647451 38.23433013 63.64652946 36.19079208 61.62649632 C34.77909309 60.22039263 33.36805509 58.81362503 31.95765305 57.40622044 C28.24389512 53.70391636 24.52121615 50.01070962 20.79662704 46.31930637 C16.99747103 42.55083935 13.2067943 38.77386455 9.41540146 34.99759007 C1.97512223 27.58948455 -5.47460632 20.1909592 -12.93030167 12.79837132 C-11.25897747 9.25813485 -9.29690834 6.80489877 -6.55530167 3.98587132 C-5.78444229 3.175051 -5.01358292 2.36423069 -4.21936417 1.52884007 C-1.93030167 -0.20162868 -1.93030167 -0.20162868 0 0 Z " fill="#4A49F2" transform="translate(149.93030166625977,419.20162868499756)"/>
<path d="M0 0 C0 0.66 0 1.32 0 2 C0.66 2 1.32 2 2 2 C3.35386936 3.65002828 4.68678142 5.3174387 6 7 C6.66 7.33 7.32 7.66 8 8 C8 8.66 8 9.32 8 10 C8.58815491 10.26349243 9.17630981 10.52698486 9.7822876 10.79846191 C12.09667131 12.05237571 13.62428115 13.37061576 15.48339844 15.22460938 C16.14378113 15.87868774 16.80416382 16.53276611 17.48455811 17.20666504 C18.18574768 17.91190308 18.88693726 18.61714111 19.609375 19.34375 C20.33618469 20.06864624 21.06299438 20.79354248 21.81182861 21.54040527 C23.34397279 23.07119011 24.87360075 24.60449697 26.40087891 26.14013672 C28.74811631 28.4981077 31.10585778 30.84519546 33.46484375 33.19140625 C34.95116282 34.67904636 36.43686169 36.16730644 37.921875 37.65625 C38.6311615 38.36148804 39.340448 39.06672607 40.07122803 39.79333496 C40.71900208 40.44741333 41.36677612 41.1014917 42.03417969 41.77539062 C42.60835632 42.35115845 43.18253296 42.92692627 43.77410889 43.5201416 C45 45 45 45 45 47 C45.99 47.33 46.98 47.66 48 48 C48 48.66 48 49.32 48 50 C48.639375 50.268125 49.27875 50.53625 49.9375 50.8125 C52 52 52 52 53 55 C54.32407669 55.68486725 55.65909241 56.34870203 57 57 C59.25 59 59.25 59 61 61 C61 61.66 61 62.32 61 63 C63.26539283 63.91514832 63.26539283 63.91514832 66 64 C68.41417979 62.09473167 68.41417979 62.09473167 70.5 59.375 C71.27472656 58.4571875 72.04945313 57.539375 72.84765625 56.59375 C73.55792969 55.7378125 74.26820313 54.881875 75 54 C76.61354947 52.22703962 78.22418876 50.61437386 80 49 C80.66 49 81.32 49 82 49 C82.24142731 48.43489212 82.48285461 47.86978424 82.7315979 47.28755188 C84.25646113 44.53747464 86.08493826 42.63869229 88.29443359 40.39916992 C89.1823056 39.49531052 90.07017761 38.59145111 90.98495483 37.66020203 C91.95563563 36.68314708 92.92680845 35.70658072 93.8984375 34.73046875 C94.8949835 33.72495413 95.89145252 32.71936321 96.8878479 31.71369934 C98.97393157 29.61115255 101.06434544 27.51301569 103.15722656 25.41723633 C105.84149464 22.72756567 108.50920721 20.02208448 111.17328453 17.3124342 C113.22374977 15.23228178 115.28532248 13.16341879 117.35017776 11.09755898 C118.3390801 10.10444315 119.32384954 9.10719444 120.30439377 8.10582542 C121.67334453 6.71011993 123.05967846 5.33152817 124.44677734 3.95385742 C125.23128265 3.16428146 126.01578796 2.37470551 126.82406616 1.561203 C129 0 129 0 131.1234436 0.11006165 C134.08124871 1.51277153 135.99442517 3.71788932 138.25 6.0625 C139.14203125 6.98160156 140.0340625 7.90070313 140.953125 8.84765625 C141.96632813 9.91306641 141.96632813 9.91306641 143 11 C141.65972043 13.98093009 140.18468111 16.06345315 137.87423706 18.36627197 C137.23201202 19.01124634 136.58978699 19.6562207 135.92810059 20.32073975 C134.87290222 21.36515228 134.87290222 21.36515228 133.79638672 22.43066406 C133.0548233 23.17251953 132.31325989 23.914375 131.54922485 24.67871094 C129.09742329 27.12911939 126.63861395 29.572368 124.1796875 32.015625 C122.47817175 33.71341057 120.77709708 35.41163829 119.07644653 37.11029053 C114.59935194 41.57974916 110.11628362 46.04316914 105.63195801 50.50537109 C101.05701531 55.05985468 96.48772952 59.62000567 91.91796875 64.1796875 C82.95085005 73.12535692 73.97760292 82.0648529 65 91 C60.74977551 89.05342813 57.83817234 86.11919573 54.57910156 82.83789062 C53.94453537 82.20682907 53.30996918 81.57576752 52.65617371 80.92558289 C50.56260156 78.8408052 48.47641993 76.74880658 46.390625 74.65625 C44.93931862 73.20629059 43.48771544 71.7566282 42.03582764 70.30725098 C38.99636871 67.27073993 35.96055557 64.23064194 32.92724609 61.18798828 C29.03090318 57.28023079 25.12562439 53.38154643 21.21759415 49.48548126 C18.22010184 46.49519922 15.22736879 43.50019076 12.23607635 40.50370789 C10.79737086 39.06366464 9.35716835 37.62511547 7.91547394 36.18806458 C5.90655515 34.18419948 3.904117 32.17407966 1.90332031 30.16210938 C1.30180649 29.56464401 0.70029266 28.96717865 0.08055115 28.35160828 C-4 24.22853043 -4 24.22853043 -4 22 C-4.66 22 -5.32 22 -6 22 C-9.01136859 19.22027515 -11.64197151 16.35088259 -14 13 C-12.58226538 9.45566346 -11.32387762 8.66193881 -8 7 C-6.90833725 5.06669397 -6.90833725 5.06669397 -6 3 C-3.53571429 0 -3.53571429 0 0 0 Z " fill="#4949F2" transform="translate(175,395)"/>
<path d="M0 0 C1.24330078 -0.04350586 1.24330078 -0.04350586 2.51171875 -0.08789062 C3.30964844 -0.09626953 4.10757813 -0.10464844 4.9296875 -0.11328125 C5.66171387 -0.12786377 6.39374023 -0.14244629 7.14794922 -0.1574707 C9.125 0.3125 9.125 0.3125 10.74047852 1.95019531 C12.3752228 4.73943631 13.41781225 7.47711115 14.47265625 10.53515625 C14.68522568 11.14374985 14.8977951 11.75234344 15.11680603 12.37937927 C15.57414166 13.6906703 16.02835177 15.0030548 16.47973633 16.31640625 C17.69197844 19.84232052 18.92758797 23.36005738 20.16015625 26.87890625 C20.40996246 27.59402374 20.65976868 28.30914124 20.91714478 29.04592896 C23.23508037 35.66662489 25.66600182 42.24295988 28.125 48.8125 C33.63969953 63.58158607 38.88955226 78.44268702 44.125 93.3125 C40.86915316 94.18540675 38.00562817 94.44678744 34.625 94.4375 C33.21734375 94.44136719 33.21734375 94.44136719 31.78125 94.4453125 C29.125 94.3125 29.125 94.3125 25.125 93.3125 C23.145 87.7025 21.165 82.0925 19.125 76.3125 C6.915 76.3125 -5.295 76.3125 -17.875 76.3125 C-19.855 81.9225 -21.835 87.5325 -23.875 93.3125 C-27.49367559 94.5187252 -30.80006251 94.42066918 -34.5625 94.375 C-35.26439453 94.37048828 -35.96628906 94.36597656 -36.68945312 94.36132812 C-38.41800538 94.34956927 -40.14651365 94.33163454 -41.875 94.3125 C-42.875 92.3125 -42.875 92.3125 -42.21679688 89.99804688 C-41.84619141 89.01900391 -41.47558594 88.03996094 -41.09375 87.03125 C-40.67125977 85.89985596 -40.24876953 84.76846191 -39.81347656 83.6027832 C-39.58019653 82.98827301 -39.3469165 82.37376282 -39.10656738 81.7406311 C-37.83098176 78.37867653 -36.58122859 75.00710306 -35.328125 71.63671875 C-35.05554871 70.90551315 -34.78297241 70.17430756 -34.50213623 69.42094421 C-30.62074327 58.98283414 -26.91637298 48.48068994 -23.18774414 37.98730469 C-19.82072588 28.51427161 -16.43632171 19.04794269 -12.984375 9.60546875 C-12.6868634 8.78597244 -12.38935181 7.96647614 -12.08282471 7.12214661 C-9.30869795 -0.42984032 -7.71336184 0.08913746 0 0 Z M0.125 23.3125 C-7.99978509 40.85023776 -7.99978509 40.85023776 -11.875 59.3125 C0.5 58.8175 0.5 58.8175 13.125 58.3125 C11.60058125 53.64747271 10.07262561 48.98393762 8.53515625 44.32324219 C8.01313146 42.73703999 7.49326195 41.1501268 6.97558594 39.5625 C6.23155762 37.28195344 5.47984198 35.00406748 4.7265625 32.7265625 C4.381129 31.65929428 4.381129 31.65929428 4.02871704 30.57046509 C2.70558731 26.57821508 2.70558731 26.57821508 0.125 23.3125 Z " fill="#4A4AF4" transform="translate(839.875,451.6875)"/>
<path d="M0 0 C0.495 0.495 0.495 0.495 1 1 C1.66 -0.98 2.32 -2.96 3 -5 C5.47923801 -5.02685095 7.9581884 -5.04676547 10.4375 -5.0625 C11.14455078 -5.07087891 11.85160156 -5.07925781 12.58007812 -5.08789062 C14.38693559 -5.09653588 16.19387603 -5.05220011 18 -5 C19 -4 19 -4 19.12025452 -1.37413025 C19.11803391 -0.20386795 19.11581329 0.96639435 19.11352539 2.17211914 C19.11367142 2.81600082 19.11381744 3.45988251 19.1139679 4.12327576 C19.11326885 6.26060303 19.10547691 8.39784413 19.09765625 10.53515625 C19.09579204 12.01346285 19.09436815 13.49177007 19.09336853 14.97007751 C19.08954359 18.86798802 19.07971352 22.76586149 19.06866455 26.66375732 C19.05844992 30.63846333 19.0538708 34.61317529 19.04882812 38.58789062 C19.03809122 46.391944 19.02101509 54.19596682 19 62 C15.99686252 63.50156874 13.20932478 63.09281204 9.875 63.0625 C8.59367188 63.05347656 7.31234375 63.04445313 5.9921875 63.03515625 C5.00476563 63.02355469 4.01734375 63.01195312 3 63 C2.34 61.35 1.68 59.7 1 58 C-1.79165038 59.09974106 -4.4904604 60.24042177 -7.1875 61.5625 C-14.85558535 64.81562712 -23.18060745 64.61864392 -31 62 C-39.6599496 58.22278794 -46.00145993 52.13842547 -50.16015625 43.625 C-53.83123183 33.24353976 -53.07821121 22.06318304 -48.73828125 12.05078125 C-44.20122242 4.08798812 -37.97994492 -1.3887463 -29.32421875 -4.37890625 C-18.61648168 -7.24030153 -9.43958854 -5.85769017 0 0 Z M-30.875 15.75 C-34.84704531 21.82489282 -35.50266334 27.18824132 -34.6640625 34.27734375 C-33.56359526 38.78925942 -31.39231092 41.87570461 -28 45 C-22.84294167 48.1136956 -17.89769937 48.91201537 -12 48 C-6.72040572 46.26500965 -2.96804665 43.7945369 0 39 C2.97450884 32.15862966 2.56546173 25.92674666 0 19 C-2.85970811 14.66113252 -5.98878086 12.10411369 -10.875 10.3125 C-18.75861848 9.15314434 -25.07868096 10.20569483 -30.875 15.75 Z " fill="#4949F2" transform="translate(538,483)"/>
<path d="M0 0 C0.66813699 1.66607778 1.33457606 3.33283678 2 5 C3.30360459 6.95140809 4.66095193 8.86770314 6.0625 10.75 C7.13177734 12.19632812 7.13177734 12.19632812 8.22265625 13.671875 C9.79783815 15.84216038 9.79783815 15.84216038 11 17 C11.31751221 16.53625977 11.63502441 16.07251953 11.9621582 15.59472656 C13.41136587 13.47919525 14.8619201 11.36459062 16.3125 9.25 C16.81201172 8.52039063 17.31152344 7.79078125 17.82617188 7.0390625 C18.31279297 6.33007812 18.79941406 5.62109375 19.30078125 4.890625 C19.74591064 4.24125977 20.19104004 3.59189453 20.6496582 2.92285156 C21.095271 2.28831055 21.54088379 1.65376953 22 1 C22.46937988 0.27449951 22.93875977 -0.45100098 23.42236328 -1.19848633 C25 -3 25 -3 26.86938477 -3.59350586 C27.55315186 -3.63354736 28.23691895 -3.67358887 28.94140625 -3.71484375 C29.68970703 -3.76060547 30.43800781 -3.80636719 31.20898438 -3.85351562 C31.98564453 -3.88123047 32.76230469 -3.90894531 33.5625 -3.9375 C34.34302734 -3.99228516 35.12355469 -4.04707031 35.92773438 -4.10351562 C38.19140625 -4.21484375 38.19140625 -4.21484375 42 -4 C42.99 -2.515 42.99 -2.515 44 -1 C42.61193272 0.93161675 41.22281065 2.86246335 39.83251953 4.79248047 C38.64852914 6.43634906 37.46592033 8.08121359 36.28466797 9.72705078 C33.61130773 13.4396862 30.92921275 17.13254887 28.09765625 20.7265625 C27.67540771 21.26635742 27.25315918 21.80615234 26.81811523 22.36230469 C25.693284 23.78842589 24.55411275 25.20320292 23.4140625 26.6171875 C21.77710349 28.81735645 21.77710349 28.81735645 22.24755859 30.90478516 C23.08710409 33.24254618 24.15574334 34.90468243 25.625 36.90625 C26.16294189 37.64504395 26.70088379 38.38383789 27.25512695 39.14501953 C27.83093506 39.92216309 28.40674316 40.69930664 29 41.5 C29.58289795 42.29647949 30.1657959 43.09295898 30.76635742 43.91357422 C35.46010125 50.3133717 40.20245009 56.67764741 45 63 C43 65 43 65 40.6796875 65.23046875 C38.74441908 65.20081979 36.80938733 65.15142457 34.875 65.0859375 C32.11046009 64.93966276 32.11046009 64.93966276 29.8125 65.2265625 C27.36095399 65.33530043 26.18432606 65.17418318 24 64 C20.52273855 59.93356801 17.78914556 55.55595393 15 51 C13.68359356 48.98808101 12.34348009 46.99403914 11 45 C7.00973189 48.76061239 3.86813301 52.75017931 0.75 57.25 C-3.92567568 63.92567568 -3.92567568 63.92567568 -5 65 C-7.82256491 65.10007008 -10.6152319 65.13875598 -13.4375 65.125 C-14.22705078 65.12886719 -15.01660156 65.13273438 -15.83007812 65.13671875 C-21.74673867 65.12663067 -21.74673867 65.12663067 -24 64 C-22.51391132 60.75386137 -20.65835615 58.08556838 -18.48046875 55.26171875 C-17.78759766 54.35873047 -17.09472656 53.45574219 -16.38085938 52.52539062 C-15.65705078 51.58888672 -14.93324219 50.65238281 -14.1875 49.6875 C-12.08043364 46.951174 -9.97613196 44.21335092 -7.88818359 41.46240234 C-6.7188693 39.93748587 -5.52769297 38.42874635 -4.30322266 36.94775391 C-2.67920926 34.99937277 -2.67920926 34.99937277 -1 32 C-2.02519483 28.49195558 -3.73457958 25.66749683 -5.79296875 22.671875 C-6.61571289 21.47111328 -6.61571289 21.47111328 -7.45507812 20.24609375 C-8.02677734 19.42238281 -8.59847656 18.59867187 -9.1875 17.75 C-9.73986328 16.94175781 -10.29222656 16.13351562 -10.86132812 15.30078125 C-14.71336741 9.70838972 -18.77631891 4.31652165 -23 -1 C-19.60952899 -4.39047101 -15.12067835 -3.82858155 -10.50390625 -4.09375 C-5.64725555 -3.96380617 -3.6574319 -3.15869119 0 0 Z " fill="#4A49F2" transform="translate(712,481)"/>
<path d="M0 0 C0.33 6.6 0.66 13.2 1 20 C2.65 20 4.3 20 6 20 C9.33333333 20 12.66666667 20 16 20 C17.14077657 23.42232972 17.09815117 26.08673217 17.0625 29.6875 C17.05347656 30.86699219 17.04445313 32.04648437 17.03515625 33.26171875 C17.02355469 34.16535156 17.01195312 35.06898438 17 36 C13.33012779 37.22329074 10.66032178 36.88021006 6.8125 36.5625 C5.54019531 36.46066406 4.26789062 36.35882813 2.95703125 36.25390625 C1.98121094 36.17011719 1.00539063 36.08632813 0 36 C0.11892052 40.02035494 0.24320855 44.0405058 0.37231445 48.06054688 C0.41543088 49.42606176 0.45712068 50.79162252 0.49731445 52.15722656 C0.55558554 54.1283719 0.61953736 56.09934668 0.68359375 58.0703125 C0.72025146 59.25383301 0.75690918 60.43735352 0.79467773 61.65673828 C0.98990218 64.83557719 1.41476502 67.87180449 2 71 C3.77074917 71.02705729 5.54161711 71.04642195 7.3125 71.0625 C8.79169922 71.07990234 8.79169922 71.07990234 10.30078125 71.09765625 C13.09963849 71.12329862 13.09963849 71.12329862 16 70 C16 75.61 16 81.22 16 87 C7.1796797 88.93322089 -0.754786 90.62494147 -9 86 C-12.86900715 82.68789539 -14.71405223 78.86889387 -16 74 C-16.16273122 71.14327959 -16.23423027 68.39114659 -16.1953125 65.5390625 C-16.1924826 64.74849457 -16.18965271 63.95792664 -16.18673706 63.1434021 C-16.17560955 60.63710916 -16.15051926 58.13118355 -16.125 55.625 C-16.11496058 53.91797394 -16.10583641 52.21094223 -16.09765625 50.50390625 C-16.07569463 46.3357976 -16.04121671 42.16796092 -16 38 C-16.66 38 -17.32 38 -18 38 C-18 37.34 -18 36.68 -18 36 C-20.64 36 -23.28 36 -26 36 C-26.33 36.66 -26.66 37.32 -27 38 C-28 37 -28 37 -28.09765625 33.18359375 C-28.09098089 31.60153318 -28.07901875 30.01948841 -28.0625 28.4375 C-28.05798828 27.63119141 -28.05347656 26.82488281 -28.04882812 25.99414062 C-28.03700518 23.99606244 -28.01906914 21.99802217 -28 20 C-24.04 20 -20.08 20 -16 20 C-16.185625 19.154375 -16.37125 18.30875 -16.5625 17.4375 C-17.06220533 13.51124384 -17.04311766 10.83324539 -16 7 C-13.57351328 5.26065996 -11.74376806 4.19718926 -9.0625 3.0625 C-8.41603516 2.76021484 -7.76957031 2.45792969 -7.10351562 2.14648438 C-2.41629464 0 -2.41629464 0 0 0 Z " fill="#4A4AF5" transform="translate(594,458)"/>
<path d="M0 0 C0.70253906 0.00386719 1.40507813 0.00773437 2.12890625 0.01171875 C2.83144531 0.00785156 3.53398438 0.00398438 4.2578125 0 C9.50229247 0.01010497 9.50229247 0.01010497 10.62890625 1.13671875 C10.7584233 3.37173246 10.81753271 5.61083883 10.85009766 7.84936523 C10.86160355 8.55211578 10.87310944 9.25486633 10.88496399 9.97891235 C10.92187155 12.32183374 10.95142406 14.66478131 10.98046875 17.0078125 C11.00360383 18.64478405 11.02699431 20.28175201 11.05062866 21.91871643 C11.09922653 25.36805755 11.14409837 28.81742333 11.18652344 32.2668457 C11.2406305 36.63596555 11.30461826 41.00487135 11.37169838 45.37380886 C11.42248683 48.7672231 11.46730818 52.16069822 11.51054001 55.55421638 C11.53177641 57.16098702 11.55486122 58.76773454 11.58000565 60.37444878 C11.75296183 71.68435701 11.35423619 82.84574933 10.62890625 94.13671875 C5.01890625 93.80671875 -0.59109375 93.47671875 -6.37109375 93.13671875 C-6.39364342 81.15867981 -6.41200805 69.18065485 -6.42290592 57.20259953 C-6.42813509 51.64132464 -6.43523333 46.08006496 -6.4465332 40.51879883 C-6.4573609 35.15664456 -6.46337033 29.79450497 -6.46597099 24.43234062 C-6.46782546 22.38171597 -6.47144647 20.33109215 -6.47682381 18.28047371 C-6.48403268 15.41881672 -6.48508476 12.55722118 -6.48461914 9.69555664 C-6.48821442 8.83888397 -6.49180969 7.9822113 -6.49551392 7.09957886 C-6.48295085 0.01249123 -6.48295085 0.01249123 0 0 Z " fill="#4C4DFA" transform="translate(902.37109375,451.86328125)"/>
<path d="M0 0 C0.33 2.64 0.66 5.28 1 8 C1.4125 7.59007812 1.825 7.18015625 2.25 6.7578125 C7.80373459 1.57597978 12.28972911 0 20 0 C20 5.94 20 11.88 20 18 C18.68 18.33 17.36 18.66 16 19 C8.58832077 20.97224114 8.58832077 20.97224114 3 26 C-0.00238015 35.00714046 0.87435434 45.31765482 0.9375 54.6875 C0.94201172 55.97333984 0.94652344 57.25917969 0.95117188 58.58398438 C0.96283999 61.72270653 0.97920985 64.86132728 1 68 C-2.65223727 69.82611864 -7.01647317 69.008558 -11.03125 68.9375 C-13.92994225 68.78651752 -13.92994225 68.78651752 -16 70 C-17.02731631 62.39357459 -17.14532241 54.91926127 -17.1328125 47.25 C-17.13376923 45.95553955 -17.13472595 44.6610791 -17.13571167 43.32739258 C-17.1371757 40.60773506 -17.13507329 37.88811067 -17.13037109 35.16845703 C-17.12462885 31.67686379 -17.12798906 28.18534666 -17.13394356 24.6937561 C-17.13840953 21.35833116 -17.13529235 18.02292711 -17.1328125 14.6875 C-17.13483673 13.4303418 -17.13686096 12.17318359 -17.13894653 10.87792969 C-17.13579437 9.72583008 -17.13264221 8.57373047 -17.12939453 7.38671875 C-17.12859894 6.36795654 -17.12780334 5.34919434 -17.12698364 4.29956055 C-17 2 -17 2 -16 1 C-13.49477056 0.76293974 -11.0107988 0.57801259 -8.5 0.4375 C-7.44619141 0.37272461 -7.44619141 0.37272461 -6.37109375 0.30664062 C-1.3188244 0 -1.3188244 0 0 0 Z " fill="#4B4CF9" transform="translate(636,477)"/>
<path d="M0 0 C0.69802734 0.00386719 1.39605469 0.00773437 2.11523438 0.01171875 C2.80939453 0.00785156 3.50355469 0.00398438 4.21875 0 C9.42445449 0.01007881 9.42445449 0.01007881 11.67773438 1.13671875 C11.67773438 22.91671875 11.67773438 44.69671875 11.67773438 67.13671875 C7.22881126 68.02650337 4.29748034 68.1021502 -0.13476562 67.69921875 C-1.29621094 67.59738281 -2.45765625 67.49554687 -3.65429688 67.390625 C-4.97494141 67.26494141 -4.97494141 67.26494141 -6.32226562 67.13671875 C-6.34539198 58.54866155 -6.3631822 49.96061726 -6.3740778 41.37253666 C-6.37930599 37.38514675 -6.38640247 33.39777808 -6.39770508 29.41040039 C-6.40853624 25.56546761 -6.41454294 21.7205553 -6.41714287 17.87560844 C-6.4189967 16.40552892 -6.42261653 14.93545057 -6.42799568 13.46537971 C-6.43520918 11.41317408 -6.43625644 9.36105408 -6.43579102 7.30883789 C-6.43801163 6.13857559 -6.44023224 4.96831329 -6.44252014 3.7625885 C-6.22880877 -0.90399907 -4.16410906 0.00807781 0 0 Z " fill="#4B4CFB" transform="translate(670.322265625,477.86328125)"/>
<path d="M0 0 C3.31252024 2.18325198 5.91841275 4.10628592 7 8 C7 14.70886076 7 14.70886076 4.765625 17.59375 C1.76883324 20.25069939 -0.98581853 21.89707227 -5 22 C-9.47926749 20.88018313 -12.06640106 18.50402096 -15 15 C-16.48824212 11.46542497 -16.02401299 10.07330281 -14.8125 6.375 C-11.36688748 -0.04096814 -7.04791095 -1.83245685 0 0 Z " fill="#4949EA" transform="translate(781,525)"/>
<path d="M0 0 C3.4001699 2.06966864 5.91812696 4.10525706 7 8 C6.92270664 12.8694817 6.73198119 15.01705383 3.8125 18.9375 C0.59638712 21.29598278 -1.01925737 22 -5 22 C-8.88030529 20.81617805 -11.27608079 19.84068038 -13.9375 16.75 C-15.29209532 13.24398857 -15.40009361 10.73420699 -15 7 C-13.76043745 4.21098427 -12.71549246 2.55649413 -10.3125 0.6875 C-6.84416773 -0.34362581 -3.55274495 -0.57917512 0 0 Z " fill="#4A49EB" transform="translate(677,452)"/>
<path d="M0 0 C0.99 0.495 0.99 0.495 2 1 C-23.74 26.74 -49.48 52.48 -76 79 C-71.62627439 84.11693401 -71.62627439 84.11693401 -67 89 C-62.74443702 87.34986235 -59.90420204 84.17055778 -56.76269531 80.98974609 C-56.14763626 80.3749791 -55.53257721 79.7602121 -54.89888 79.1268158 C-52.87051742 77.09706176 -50.84932774 75.06031925 -48.828125 73.0234375 C-47.42180303 71.61338475 -46.01503836 70.20377342 -44.60784912 68.79458618 C-40.90777382 65.08687958 -37.21374433 61.37320576 -33.52093506 57.65826416 C-29.75065747 53.86751741 -25.97470239 50.08243543 -22.19921875 46.296875 C-14.7939064 38.87012159 -7.39496768 31.43705286 0 24 C1.32 24.66 2.64 25.32 4 26 C4 26.66 4 27.32 4 28 C3.39911151 27.78842853 2.79822302 27.57685705 2.17912579 27.35887432 C1.46001428 27.2404458 0.74090277 27.12201727 0 27 C-2.28873334 28.80319681 -4.20294308 30.56167089 -6.22143555 32.63793945 C-7.14161469 33.55461395 -7.14161469 33.55461395 -8.0803833 34.48980713 C-10.1113756 36.51918046 -12.12395178 38.56584304 -14.13671875 40.61328125 C-15.54006195 42.02341044 -16.94443885 43.4325116 -18.34980774 44.84062195 C-21.2952288 47.79673522 -24.232438 50.76068307 -27.16333008 53.73120117 C-30.92614603 57.54488524 -34.70171956 61.34559464 -38.48257732 65.14138508 C-42.07954483 68.7531271 -45.6712521 72.37007794 -49.26171875 75.98828125 C-50.29501595 77.02894462 -50.29501595 77.02894462 -51.34918785 78.09063148 C-53.29123345 80.04891169 -55.22963518 82.01071865 -57.16674805 83.97387695 C-57.74596512 84.55735397 -58.32518219 85.14083099 -58.92195129 85.74198914 C-61.81274807 88.60640428 -61.81274807 88.60640428 -64 92 C-68.44926052 91.58685438 -70.84100104 88.49538473 -73.75 85.4375 C-74.25660156 84.91736328 -74.76320312 84.39722656 -75.28515625 83.86132812 C-76.53034405 82.58089916 -77.76611502 81.29132446 -79 80 C-74.7507125 74.9256555 -70.30894515 70.16990451 -65.61767578 65.50415039 C-64.90478897 64.79111755 -64.19190216 64.07808472 -63.45741272 63.34344482 C-61.12241086 61.00913443 -58.78389705 58.6783769 -56.4453125 56.34765625 C-54.81699116 54.72120181 -53.18889182 53.09452509 -51.56100464 51.46763611 C-47.29220984 47.20264503 -43.0204196 42.94066664 -38.74798584 38.67932129 C-34.38225097 34.32384678 -30.01937329 29.96551227 -25.65625 25.60742188 C-17.10695118 17.06882253 -8.55448323 8.53340507 0 0 Z " fill="#3D3ABD" transform="translate(238,509)"/>
<path d="M0 0 C0.33 2.64 0.66 5.28 1 8 C1.4125 7.59007812 1.825 7.18015625 2.25 6.7578125 C7.80373459 1.57597978 12.28972911 0 20 0 C20 5.94 20 11.88 20 18 C16.91771831 18.77057042 13.86419297 19.44785665 10.75 20.0625 C9.85796875 20.23910156 8.9659375 20.41570312 8.046875 20.59765625 C7.03367187 20.79681641 7.03367187 20.79681641 6 21 C8.05233685 18.7522025 9.00667261 17.9977758 12 17 C14.31 17 16.62 17 19 17 C19 12.38 19 7.76 19 3 C11.05502488 3.38996831 11.05502488 3.38996831 4.5859375 7.5078125 C3.98652344 8.30832031 3.98652344 8.30832031 3.375 9.125 C2.59125 10.07375 1.8075 11.0225 1 12 C0.34 12 -0.32 12 -1 12 C-1 9.03 -1 6.06 -1 3 C-5.62 3 -10.24 3 -15 3 C-15 24.12 -15 45.24 -15 67 C-10.38 67 -5.76 67 -1 67 C-1 56.44 -1 45.88 -1 35 C-0.67 35 -0.34 35 0 35 C0.91050683 46.02363628 1.1139891 56.94305724 1 68 C-2.65223727 69.82611864 -7.01647317 69.008558 -11.03125 68.9375 C-13.92994225 68.78651752 -13.92994225 68.78651752 -16 70 C-17.02731631 62.39357459 -17.14532241 54.91926127 -17.1328125 47.25 C-17.13376923 45.95553955 -17.13472595 44.6610791 -17.13571167 43.32739258 C-17.1371757 40.60773506 -17.13507329 37.88811067 -17.13037109 35.16845703 C-17.12462885 31.67686379 -17.12798906 28.18534666 -17.13394356 24.6937561 C-17.13840953 21.35833116 -17.13529235 18.02292711 -17.1328125 14.6875 C-17.13483673 13.4303418 -17.13686096 12.17318359 -17.13894653 10.87792969 C-17.13579437 9.72583008 -17.13264221 8.57373047 -17.12939453 7.38671875 C-17.12859894 6.36795654 -17.12780334 5.34919434 -17.12698364 4.29956055 C-17 2 -17 2 -16 1 C-13.49477056 0.76293974 -11.0107988 0.57801259 -8.5 0.4375 C-7.44619141 0.37272461 -7.44619141 0.37272461 -6.37109375 0.30664062 C-1.3188244 0 -1.3188244 0 0 0 Z " fill="#3C3ABE" transform="translate(636,477)"/>
<path d="M0 0 C4.32598203 0.00474861 6.21690082 0.10268209 9.47265625 3.02734375 C11.50596908 5.85877938 13.26317564 8.69415185 14.9375 11.75 C15.52273438 12.65363281 16.10796875 13.55726563 16.7109375 14.48828125 C17.11570312 15.23464844 17.52046875 15.98101562 17.9375 16.75 C17.6075 17.41 17.2775 18.07 16.9375 18.75 C16.35484375 17.67878906 15.7721875 16.60757812 15.171875 15.50390625 C14.3459518 14.1054681 13.51770137 12.7084026 12.6875 11.3125 C12.31109375 10.60544922 11.9346875 9.89839844 11.546875 9.16992188 C10.16337056 6.73457945 10.16337056 6.73457945 6.9375 3.75 C2.9775 3.42 -0.9825 3.09 -5.0625 2.75 C-5.0625 32.45 -5.0625 62.15 -5.0625 92.75 C-0.4425 92.75 4.1775 92.75 8.9375 92.75 C8.9375 72.95 8.9375 53.15 8.9375 32.75 C9.2675 32.75 9.5975 32.75 9.9375 32.75 C10.08276075 38.54420413 10.22502037 44.33847225 10.36474609 50.1328125 C10.41246559 52.0953968 10.46094207 54.05796287 10.51025391 56.02050781 C10.82570762 68.60002932 11.00789745 81.16645669 10.9375 93.75 C6.90788361 94.45750859 3.15673983 94.86242975 -0.9375 94.8125 C-2.38769531 94.79896484 -2.38769531 94.79896484 -3.8671875 94.78515625 C-4.59164063 94.77355469 -5.31609375 94.76195312 -6.0625 94.75 C-6.0625 94.09 -6.0625 93.43 -6.0625 92.75 C-6.7225 92.42 -7.3825 92.09 -8.0625 91.75 C-7.81886719 90.51830078 -7.81886719 90.51830078 -7.5703125 89.26171875 C-7.00356353 85.34243165 -6.91566131 81.51166252 -6.9375 77.5625 C-6.93169922 76.49612305 -6.93169922 76.49612305 -6.92578125 75.40820312 C-6.93171506 72.25438116 -7.05806465 69.76330605 -8.0625 66.75 C-7.75031782 65.07924233 -7.41385167 63.41296148 -7.0625 61.75 C-6.98272077 59.73145689 -6.95478564 57.71052371 -6.96484375 55.69042969 C-6.96814697 54.49278992 -6.9714502 53.29515015 -6.97485352 52.06121826 C-6.98730103 50.13599335 -6.98730103 50.13599335 -7 48.171875 C-7.00440777 46.83620378 -7.00822382 45.50053049 -7.01147461 44.16485596 C-7.02286812 39.94320706 -7.04213813 35.7216139 -7.0625 31.5 C-7.08285682 27.2641042 -7.10206919 23.02822778 -7.11352539 18.79229736 C-7.12109712 16.15584606 -7.13320769 13.51940337 -7.15014648 10.88299561 C-7.15344971 9.69796448 -7.15675293 8.51293335 -7.16015625 7.29199219 C-7.16801147 5.71910431 -7.16801147 5.71910431 -7.17602539 4.11444092 C-6.95846518 -0.4167768 -3.99541095 0.31192646 0 0 Z " fill="#3E3BBD" transform="translate(392.0625,451.25)"/>
<path d="M0 0 C0.69802734 0.00386719 1.39605469 0.00773437 2.11523438 0.01171875 C2.80939453 0.00785156 3.50355469 0.00398438 4.21875 0 C9.42445449 0.01007881 9.42445449 0.01007881 11.67773438 1.13671875 C11.67773438 22.91671875 11.67773438 44.69671875 11.67773438 67.13671875 C7.22881126 68.02650337 4.29748034 68.1021502 -0.13476562 67.69921875 C-1.29621094 67.59738281 -2.45765625 67.49554687 -3.65429688 67.390625 C-4.97494141 67.26494141 -4.97494141 67.26494141 -6.32226562 67.13671875 C-6.34539198 58.54866155 -6.3631822 49.96061726 -6.3740778 41.37253666 C-6.37930599 37.38514675 -6.38640247 33.39777808 -6.39770508 29.41040039 C-6.40853624 25.56546761 -6.41454294 21.7205553 -6.41714287 17.87560844 C-6.4189967 16.40552892 -6.42261653 14.93545057 -6.42799568 13.46537971 C-6.43520918 11.41317408 -6.43625644 9.36105408 -6.43579102 7.30883789 C-6.43801163 6.13857559 -6.44023224 4.96831329 -6.44252014 3.7625885 C-6.22880877 -0.90399907 -4.16410906 0.00807781 0 0 Z M-4.32226562 2.13671875 C-4.32226562 23.25671875 -4.32226562 44.37671875 -4.32226562 66.13671875 C0.29773438 66.13671875 4.91773438 66.13671875 9.67773438 66.13671875 C9.67773438 45.01671875 9.67773438 23.89671875 9.67773438 2.13671875 C5.05773437 2.13671875 0.43773437 2.13671875 -4.32226562 2.13671875 Z " fill="#403DBE" transform="translate(670.322265625,477.86328125)"/>
<path d="M0 0 C0.70253906 0.00386719 1.40507813 0.00773437 2.12890625 0.01171875 C2.83144531 0.00785156 3.53398438 0.00398438 4.2578125 0 C9.50229247 0.01010497 9.50229247 0.01010497 10.62890625 1.13671875 C10.7584233 3.37173246 10.81753271 5.61083883 10.85009766 7.84936523 C10.86160355 8.55211578 10.87310944 9.25486633 10.88496399 9.97891235 C10.92187155 12.32183374 10.95142406 14.66478131 10.98046875 17.0078125 C11.00360383 18.64478405 11.02699431 20.28175201 11.05062866 21.91871643 C11.09922653 25.36805755 11.14409837 28.81742333 11.18652344 32.2668457 C11.2406305 36.63596555 11.30461826 41.00487135 11.37169838 45.37380886 C11.42248683 48.7672231 11.46730818 52.16069822 11.51054001 55.55421638 C11.53177641 57.16098702 11.55486122 58.76773454 11.58000565 60.37444878 C11.75296183 71.68435701 11.35423619 82.84574933 10.62890625 94.13671875 C5.01890625 93.80671875 -0.59109375 93.47671875 -6.37109375 93.13671875 C-6.39364342 81.15867981 -6.41200805 69.18065485 -6.42290592 57.20259953 C-6.42813509 51.64132464 -6.43523333 46.08006496 -6.4465332 40.51879883 C-6.4573609 35.15664456 -6.46337033 29.79450497 -6.46597099 24.43234062 C-6.46782546 22.38171597 -6.47144647 20.33109215 -6.47682381 18.28047371 C-6.48403268 15.41881672 -6.48508476 12.55722118 -6.48461914 9.69555664 C-6.48821442 8.83888397 -6.49180969 7.9822113 -6.49551392 7.09957886 C-6.48295085 0.01249123 -6.48295085 0.01249123 0 0 Z M-4.37109375 2.13671875 C-4.37109375 31.83671875 -4.37109375 61.53671875 -4.37109375 92.13671875 C0.24890625 92.13671875 4.86890625 92.13671875 9.62890625 92.13671875 C9.62890625 62.43671875 9.62890625 32.73671875 9.62890625 2.13671875 C5.00890625 2.13671875 0.38890625 2.13671875 -4.37109375 2.13671875 Z " fill="#3636B0" transform="translate(902.37109375,451.86328125)"/>
<path d="M0 0 C2.47923801 -0.02685095 4.9581884 -0.04676547 7.4375 -0.0625 C8.14455078 -0.07087891 8.85160156 -0.07925781 9.58007812 -0.08789062 C11.38693559 -0.09653588 13.19387603 -0.05220011 15 0 C16 1 16 1 16.12025452 3.62586975 C16.1169236 5.3812632 16.1169236 5.3812632 16.11352539 7.17211914 C16.11367142 7.81600082 16.11381744 8.45988251 16.1139679 9.12327576 C16.11326885 11.26060303 16.10547691 13.39784413 16.09765625 15.53515625 C16.09579204 17.01346285 16.09436815 18.49177007 16.09336853 19.97007751 C16.08954359 23.86798802 16.07971352 27.76586149 16.06866455 31.66375732 C16.05844992 35.63846333 16.0538708 39.61317529 16.04882812 43.58789062 C16.03809122 51.391944 16.02101509 59.19596682 16 67 C12.99686252 68.50156874 10.20932478 68.09281204 6.875 68.0625 C4.95300781 68.04896484 4.95300781 68.04896484 2.9921875 68.03515625 C2.00476563 68.02355469 1.01734375 68.01195312 0 68 C0 65.36 0 62.72 0 60 C0.33 60 0.66 60 1 60 C1 61.98 1 63.96 1 66 C5.29 66 9.58 66 14 66 C14 44.88 14 23.76 14 2 C9.71 2 5.42 2 1 2 C0.67 4.31 0.34 6.62 0 9 C-3.43595166 7.47291037 -6.11912454 5.40072955 -9 3 C-6.03824877 3.61277612 -4.61941217 4.25372522 -2 6 C-1.34 4.02 -0.68 2.04 0 0 Z " fill="#4240C9" transform="translate(541,478)"/>
<path d="M0 0 C0.33 2.64 0.66 5.28 1 8 C1.4125 7.59007812 1.825 7.18015625 2.25 6.7578125 C7.80373459 1.57597978 12.28972911 0 20 0 C20 5.94 20 11.88 20 18 C16.91771831 18.77057042 13.86419297 19.44785665 10.75 20.0625 C9.85796875 20.23910156 8.9659375 20.41570312 8.046875 20.59765625 C7.03367187 20.79681641 7.03367187 20.79681641 6 21 C8.05233685 18.7522025 9.00667261 17.9977758 12 17 C14.31 17 16.62 17 19 17 C19 12.38 19 7.76 19 3 C11.05502488 3.38996831 11.05502488 3.38996831 4.5859375 7.5078125 C3.98652344 8.30832031 3.98652344 8.30832031 3.375 9.125 C2.59125 10.07375 1.8075 11.0225 1 12 C0.34 12 -0.32 12 -1 12 C-1 9.03 -1 6.06 -1 3 C-5.95 3 -10.9 3 -16 3 C-16 10.59 -16 18.18 -16 26 C-16.33 26 -16.66 26 -17 26 C-17.02886984 22.02084841 -17.04675406 18.04172347 -17.0625 14.0625 C-17.07087891 12.92619141 -17.07925781 11.78988281 -17.08789062 10.61914062 C-17.09111328 9.53955078 -17.09433594 8.45996094 -17.09765625 7.34765625 C-17.10289307 6.34742432 -17.10812988 5.34719238 -17.11352539 4.31665039 C-17 2 -17 2 -16 1 C-13.49477056 0.76293974 -11.0107988 0.57801259 -8.5 0.4375 C-7.44619141 0.37272461 -7.44619141 0.37272461 -6.37109375 0.30664062 C-1.3188244 0 -1.3188244 0 0 0 Z " fill="#4441C9" transform="translate(636,477)"/>
<path d="M0 0 C0.99 0.495 0.99 0.495 2 1 C-11.67773438 14.67773438 -25.35546875 28.35546875 -39.03320312 42.03320312 C-39.53255371 42.53327881 -40.0319043 43.03335449 -40.54638672 43.54858398 C-41.95090403 44.95097825 -43.36301758 46.34575205 -44.77539062 47.74023438 C-47.02869171 49.93470635 -47.02869171 49.93470635 -48.8125 52.375 C-51.34347811 55.41217374 -54.16527445 57.82462511 -57.1953125 60.3515625 C-59.21772256 62.06632331 -59.21772256 62.06632331 -61 65 C-61.66 64.67 -62.32 64.34 -63 64 C-57.00470098 57.22313421 -50.83457203 50.67525598 -44.44140625 44.2734375 C-43.57104233 43.39974518 -42.70067841 42.52605286 -41.80393982 41.62588501 C-39.98428441 39.80121019 -38.16331228 37.97784758 -36.34106445 36.15576172 C-33.54025493 33.35273734 -30.74757451 30.54177229 -27.95507812 27.73046875 C-26.18017589 25.95263728 -24.40480254 24.175276 -22.62890625 22.3984375 C-21.79251114 21.55485687 -20.95611603 20.71127625 -20.09437561 19.84213257 C-19.32274582 19.07357941 -18.55111603 18.30502625 -17.75610352 17.51318359 C-17.07709488 16.83274994 -16.39808624 16.15231628 -15.69850159 15.45126343 C-14 14 -14 14 -12 14 C-11.66355469 13.17242187 -11.66355469 13.17242187 -11.3203125 12.328125 C-9.59614817 9.28788256 -7.37484178 7.18574327 -4.875 4.75 C-3.96492188 3.85796875 -3.05484375 2.9659375 -2.1171875 2.046875 C-1.41851562 1.37140625 -0.71984375 0.6959375 0 0 Z " fill="#3D39BD" transform="translate(315,431)"/>
<path d="M0 0 C0.33 0 0.66 0 1 0 C1.33 6.27 1.66 12.54 2 19 C3.65 19 5.3 19 7 19 C10.33333333 19 13.66666667 19 17 19 C18.14077657 22.42232972 18.09815117 25.08673217 18.0625 28.6875 C18.05347656 29.86699219 18.04445313 31.04648437 18.03515625 32.26171875 C18.02355469 33.16535156 18.01195312 34.06898438 18 35 C14.33012779 36.22329074 11.66032178 35.88021006 7.8125 35.5625 C6.54019531 35.46066406 5.26789062 35.35882813 3.95703125 35.25390625 C2.98121094 35.17011719 2.00539063 35.08632813 1 35 C1.03552979 35.76143311 1.07105957 36.52286621 1.10766602 37.30737305 C1.26556417 40.76716159 1.4141268 44.22729044 1.5625 47.6875 C1.61857422 48.88568359 1.67464844 50.08386719 1.73242188 51.31835938 C1.78076172 52.47529297 1.82910156 53.63222656 1.87890625 54.82421875 C1.9260376 55.88729248 1.97316895 56.95036621 2.02172852 58.0456543 C2.0011179 60.84800382 1.6525411 63.2821773 1 66 C0.67 66 0.34 66 0 66 C0 55.44 0 44.88 0 34 C5.28 34 10.56 34 16 34 C16 29.71 16 25.42 16 21 C10.72 21 5.44 21 0 21 C0 14.07 0 7.14 0 0 Z " fill="#3937B1" transform="translate(593,459)"/>
<path d="M0 0 C0.93815552 0.94033081 0.93815552 0.94033081 1.89526367 1.8996582 C5.2442022 5.24874332 8.60815427 8.58267512 11.970047 11.91874695 C15.26254545 15.18810991 18.55139904 18.46112331 21.83901691 21.73539257 C24.33350935 24.21938732 26.82986787 26.70144904 29.33032227 29.17944336 C32.22180279 32.04513094 35.10523939 34.91879143 37.98828125 37.79296875 C39.34280144 39.13200508 39.34280144 39.13200508 40.72468567 40.49809265 C41.96178535 41.73496574 41.96178535 41.73496574 43.22387695 42.99682617 C43.95492142 43.72342941 44.68596588 44.45003265 45.43916321 45.19865417 C47 47 47 47 47 49 C47.5775 49.2475 48.155 49.495 48.75 49.75 C51.32939979 51.18299988 53.06121592 52.78424676 55 55 C55 55.66 55 56.32 55 57 C51.23369729 55.74456576 50.40558606 54.11311137 48 51 C46.350512 49.31312814 44.68267139 47.65343164 43 46 C41.49474491 44.511199 39.98981693 43.02206725 38.48510742 41.53271484 C37.1943354 40.25646744 37.1943354 40.25646744 35.87748718 38.95443726 C32.50400596 35.6156626 29.13599636 32.27141746 25.76983166 28.92526817 C23.21610196 26.38727578 20.65960085 23.85220244 18.09692383 21.32324219 C15.6077768 18.86661874 13.12596723 16.40280097 10.64913368 13.93376541 C9.24708151 12.53995263 7.83746894 11.15375838 6.42778015 9.76766968 C5.58302628 8.9231424 4.7382724 8.07861511 3.86791992 7.20849609 C3.11911057 6.46634857 2.37030121 5.72420105 1.59880066 4.95956421 C0 3 0 3 0 0 Z " fill="#413EC4" transform="translate(275,496)"/>
<path d="M0 0 C2.87054376 1.43527188 2.9274455 3.12455689 3.9453125 6.12890625 C4.29980469 7.16337891 4.65429688 8.19785156 5.01953125 9.26367188 C5.38433594 10.35228516 5.74914062 11.44089844 6.125 12.5625 C6.49753906 13.65498047 6.87007812 14.74746094 7.25390625 15.87304688 C8.17587908 18.57986455 9.09090826 21.28883448 10 24 C6.74415316 24.87290675 3.88062817 25.13428744 0.5 25.125 C-0.90765625 25.12886719 -0.90765625 25.12886719 -2.34375 25.1328125 C-3.2203125 25.08898437 -4.096875 25.04515625 -5 25 C-5.71542969 24.97421875 -6.43085937 24.9484375 -7.16796875 24.921875 C-9.74946243 23.62287178 -10.24807914 21.71375557 -11.17773438 19.08203125 C-11.38720703 18.43621094 -11.59667969 17.79039062 -11.8125 17.125 C-12.04130859 16.48691406 -12.27011719 15.84882812 -12.50585938 15.19140625 C-13.63376541 11.88702098 -14.13046933 10.39140798 -13 7 C-12.34 7 -11.68 7 -11 7 C-10.68623479 8.54140966 -10.37405535 10.08314215 -10.0625 11.625 C-9.80146484 12.91277344 -9.80146484 12.91277344 -9.53515625 14.2265625 C-8.97265778 17.14170057 -8.48808602 20.07148391 -8 23 C-3.05 22.67 1.9 22.34 7 22 C6.4946875 20.66324219 5.989375 19.32648437 5.46875 17.94921875 C4.81224349 16.1954085 4.15600753 14.44149696 3.5 12.6875 C3.16613281 11.80642578 2.83226562 10.92535156 2.48828125 10.01757812 C2.17246094 9.17001953 1.85664062 8.32246094 1.53125 7.44921875 C1.09135742 6.27879028 1.09135742 6.27879028 0.64257812 5.0847168 C0 3 0 3 0 0 Z " fill="#3F3BBC" transform="translate(874,521)"/>
<path d="M0 0 C1.125 2.3125 1.125 2.3125 2 5 C3.56980544 7.41508529 5.27753843 9.68827526 7 12 C6.67 12.66 6.34 13.32 6 14 C4.70759488 12.22970554 3.41610207 10.45874502 2.125 8.6875 C1.40570312 7.70136719 0.68640625 6.71523438 -0.0546875 5.69921875 C-1.4055935 3.82476885 -2.71835329 1.92247007 -4 0 C-6.7885289 -0.22107787 -9.34653181 -0.28107535 -12.125 -0.1875 C-12.87910156 -0.17396484 -13.63320313 -0.16042969 -14.41015625 -0.14648438 C-16.27374127 -0.11109985 -18.13695978 -0.05729167 -20 0 C-17.525 2.97 -17.525 2.97 -15 6 C-15.33 6.66 -15.66 7.32 -16 8 C-18.31 5.03 -20.62 2.06 -23 -1 C-19.60952899 -4.39047101 -15.12067835 -3.82858155 -10.50390625 -4.09375 C-5.64725555 -3.96380617 -3.6574319 -3.15869119 0 0 Z " fill="#3F3BB9" transform="translate(712,481)"/>
<path d="M0 0 C2.56679483 2.56679483 3.33348554 5.05010682 4.625 8.4375 C5.07101562 9.59121094 5.51703125 10.74492187 5.9765625 11.93359375 C7 15 7 15 7 18 C-2.24 18 -11.48 18 -21 18 C-21 17.67 -21 17.34 -21 17 C-17.68856994 16.27586627 -14.52155779 15.83645745 -11.13671875 15.68359375 C-9.80737305 15.62075195 -9.80737305 15.62075195 -8.45117188 15.55664062 C-7.53916016 15.51732422 -6.62714844 15.47800781 -5.6875 15.4375 C-4.29047852 15.37272461 -4.29047852 15.37272461 -2.86523438 15.30664062 C-0.57695546 15.20102775 1.71142372 15.09892248 4 15 C3.71125 14.16855469 3.4225 13.33710938 3.125 12.48046875 C2.75375 11.39378906 2.3825 10.30710937 2 9.1875 C1.62875 8.10855469 1.2575 7.02960938 0.875 5.91796875 C0 3 0 3 0 0 Z " fill="#3F3EC3" transform="translate(848,494)"/>
<path d="M0 0 C2.93847653 -0.107834 5.87301151 -0.18721916 8.8125 -0.25 C9.64587891 -0.28351563 10.47925781 -0.31703125 11.33789062 -0.3515625 C17.47930197 -0.45021971 17.47930197 -0.45021971 19.93359375 1.671875 C21.12209452 4.26655067 22.26344527 6.82010505 23.25 9.5 C23.60578125 10.4384375 23.9615625 11.376875 24.328125 12.34375 C25 15 25 15 24 19 C22.02 13.72 20.04 8.44 18 3 C12.39 3 6.78 3 1 3 C0.01 5.31 -0.98 7.62 -2 10 C-2.6875 8.375 -2.6875 8.375 -3 6 C-2.04849345 3.97647948 -1.05156568 1.97337518 0 0 Z " fill="#403DB7" transform="translate(831,452)"/>
<path d="M0 0 C1 2 1 2 0.19555664 4.88916016 C-0.22862549 6.09362793 -0.65280762 7.2980957 -1.08984375 8.5390625 C-1.42490685 9.50034561 -1.42490685 9.50034561 -1.76673889 10.48104858 C-2.48329183 12.5315779 -3.2102492 14.57824339 -3.9375 16.625 C-4.42451674 18.01277937 -4.91085369 19.4007975 -5.39648438 20.7890625 C-6.58852259 24.19605036 -7.79454784 27.59761656 -9 31 C-4.05 31 0.9 31 6 31 C6.33 30.34 6.66 29.68 7 29 C6.67 30.32 6.34 31.64 6 33 C0.39 33 -5.22 33 -11 33 C-12 31 -12 31 -11.11962891 28.03491211 C-10.66331066 26.77943889 -10.19833508 25.52709171 -9.7265625 24.27734375 C-9.48336273 23.61666397 -9.24016296 22.95598419 -8.98959351 22.27528381 C-8.47352221 20.877755 -7.95377502 19.48157899 -7.43066406 18.08666992 C-6.62798153 15.94545345 -5.83648236 13.800365 -5.046875 11.65429688 C-4.54492127 10.29923805 -4.04233825 8.94441213 -3.5390625 7.58984375 C-3.30047516 6.94506577 -3.06188782 6.30028778 -2.81607056 5.63597107 C-1.11687567 1.11687567 -1.11687567 1.11687567 0 0 Z " fill="#3F3CBD" transform="translate(809,513)"/>
<path d="M0 0 C0.33 0 0.66 0 1 0 C1 2.31 1 4.62 1 7 C-2.63 7 -6.26 7 -10 7 C-10 11.29 -10 15.58 -10 20 C-7.36 20 -4.72 20 -2 20 C-2 20.33 -2 20.66 -2 21 C-4.64 21 -7.28 21 -10 21 C-10.33 21.66 -10.66 22.32 -11 23 C-12 22 -12 22 -12.09765625 18.18359375 C-12.09098089 16.60153318 -12.07901875 15.01948841 -12.0625 13.4375 C-12.05798828 12.63119141 -12.05347656 11.82488281 -12.04882812 10.99414062 C-12.03700518 8.99606244 -12.01906914 6.99802217 -12 5 C-8.04 5 -4.08 5 0 5 C0 3.35 0 1.7 0 0 Z " fill="#3D3CBA" transform="translate(578,473)"/>
<path d="M0 0 C3.28754511 0.57889381 4.93672495 1.54828411 7.25 3.9375 C7.77078125 4.46214844 8.2915625 4.98679687 8.828125 5.52734375 C10 7 10 7 10 9 C10.66 9 11.32 9 12 9 C12 9.66 12 10.32 12 11 C12.66 11 13.32 11 14 11 C13.52797514 15.24822374 11.03344482 17.19989709 8 20 C7.34 19.67 6.68 19.34 6 19 C7.65 17.35 9.3 15.7 11 14 C9.32258336 10.03519703 6.87873138 7.15958323 4 4 C3.01 3.67 2.02 3.34 1 3 C0.29875 3.7425 -0.4025 4.485 -1.125 5.25 C-3.97718006 7.97817223 -6.6763063 9.91302954 -10 12 C-8.44396229 8.18063472 -6.04395069 5.73955562 -3 3 C-2.34 3 -1.68 3 -1 3 C-0.67 2.01 -0.34 1.02 0 0 Z " fill="#4441BF" transform="translate(328,418)"/>
<path d="M0 0 C0.33 0.66 0.66 1.32 1 2 C0.34 2 -0.32 2 -1 2 C-1.33 3.32 -1.66 4.64 -2 6 C-2.928125 6.12375 -2.928125 6.12375 -3.875 6.25 C-6.17972859 6.79394438 -6.17972859 6.79394438 -7.0625 9 C-7.371875 9.66 -7.68125 10.32 -8 11 C-8.99 11.33 -9.98 11.66 -11 12 C-11.39832031 12.82757812 -11.39832031 12.82757812 -11.8046875 13.671875 C-13.5916538 17.15237146 -16.33590096 19.54502691 -19.125 22.25 C-19.68832031 22.80429687 -20.25164062 23.35859375 -20.83203125 23.9296875 C-22.21686028 25.29104485 -23.60783204 26.64614859 -25 28 C-25.66 27.67 -26.32 27.34 -27 27 C-26.19175781 26.20335937 -25.38351563 25.40671875 -24.55078125 24.5859375 C-23.47121829 23.51576205 -22.39179887 22.44544179 -21.3125 21.375 C-20.78205078 20.85292969 -20.25160156 20.33085938 -19.70507812 19.79296875 C-16.24137167 16.35051202 -13.08982396 12.78117872 -10 9 C-5.48387097 4.16129032 -5.48387097 4.16129032 -2 3 C-2 2.34 -2 1.68 -2 1 C-1.34 0.67 -0.68 0.34 0 0 Z " fill="#3F3DC7" transform="translate(186,514)"/>
<path d="M0 0 C0.66 0.33 1.32 0.66 2 1 C1.43152344 1.556875 0.86304688 2.11375 0.27734375 2.6875 C-4.70853286 7.61511094 -9.46795054 12.65189019 -14 18 C-17.8224465 17.46115292 -19.23524018 15.94772136 -21.625 13 C-23.94555299 10.04427685 -23.94555299 10.04427685 -27 8 C-27 7.34 -27 6.68 -27 6 C-23.63820226 7.44077046 -21.40843732 9.24750021 -19 12 C-19 12.66 -19 13.32 -19 14 C-16.73460717 14.91514832 -16.73460717 14.91514832 -14 15 C-11.58582021 13.09473167 -11.58582021 13.09473167 -9.5 10.375 C-8.72785156 9.4571875 -7.95570313 8.539375 -7.16015625 7.59375 C-6.09087891 6.30984375 -6.09087891 6.30984375 -5 5 C-3.37165313 3.28515895 -1.69944856 1.64462764 0 0 Z " fill="#3F3DC6" transform="translate(255,444)"/>
<path d="M0 0 C0 0.66 0 1.32 0 2 C0.66 2 1.32 2 2 2 C2.33 2.99 2.66 3.98 3 5 C2.34 5 1.68 5 1 5 C1 4.34 1 3.68 1 3 C-2.93075644 3.57452746 -2.93075644 3.57452746 -6 6 C-6.144375 6.66 -6.28875 7.32 -6.4375 8 C-7 10 -7 10 -10 12 C-9.38722388 14.96175123 -8.74627478 16.38058783 -7 19 C-10.36720387 17.60667426 -11.9859524 16.0210714 -14 13 C-12.58226538 9.45566346 -11.32387762 8.66193881 -8 7 C-6.90833725 5.06669397 -6.90833725 5.06669397 -6 3 C-3.53571429 0 -3.53571429 0 0 0 Z " fill="#4644C7" transform="translate(175,395)"/>
<path d="M0 0 C4.95 0 9.9 0 15 0 C15 0.66 15 1.32 15 2 C10.38 2 5.76 2 1 2 C0.67 4.31 0.34 6.62 0 9 C-3.43595166 7.47291037 -6.11912454 5.40072955 -9 3 C-6.03824877 3.61277612 -4.61941217 4.25372522 -2 6 C-1.34 4.02 -0.68 2.04 0 0 Z " fill="#4542C9" transform="translate(541,478)"/>
<path d="M0 0 C0.66 0 1.32 0 2 0 C2 5.61 2 11.22 2 17 C0.35 17 -1.3 17 -3 17 C-1.68 16.67 -0.36 16.34 1 16 C1 11.71 1 7.42 1 3 C-0.32 3.33 -1.64 3.66 -3 4 C-5.33300933 4.03888349 -7.66709801 4.0448635 -10 4 C-10.33 3.34 -10.66 2.68 -11 2 C-10.28972656 1.93941406 -9.57945312 1.87882813 -8.84765625 1.81640625 C-7.46900391 1.69072266 -7.46900391 1.69072266 -6.0625 1.5625 C-5.14597656 1.48128906 -4.22945312 1.40007813 -3.28515625 1.31640625 C-1.03840268 1.23955024 -1.03840268 1.23955024 0 0 Z " fill="#413DBE" transform="translate(608,528)"/>
<path d="M0 0 C0.350625 0.50015625 0.70125 1.0003125 1.0625 1.515625 C-2.67727929 3.38551464 -7.5847077 2.45896811 -11.72851562 2.30078125 C-16.04881885 2.05624212 -16.04881885 2.05624212 -19.68383789 4.03173828 C-20.09754639 4.5214209 -20.51125488 5.01110352 -20.9375 5.515625 C-20.125 3.078125 -20.125 3.078125 -18.9375 0.515625 C-15.54791439 -0.61423687 -12.49697745 -0.92292072 -8.9375 -1.234375 C-7.7 -1.35296875 -6.4625 -1.4715625 -5.1875 -1.59375 C-1.9375 -1.484375 -1.9375 -1.484375 0 0 Z " fill="#3E3CB2" transform="translate(754.9375,478.484375)"/>
<path d="M0 0 C3.28788824 3.11016455 5.83735988 6.01618925 8 10 C2.42639644 12.78680178 -6.01410863 11.06415847 -12 10 C-12 9.67 -12 9.34 -12 9 C-6.39 9 -0.78 9 5 9 C3.7625 7.329375 3.7625 7.329375 2.5 5.625 C0 2.25 0 2.25 0 0 Z " fill="#3D39B7" transform="translate(749,535)"/>
<path d="M0 0 C0.33 0.99 0.66 1.98 1 3 C-0.09918816 3.98475214 -1.2045602 4.96260473 -2.3125 5.9375 C-2.92738281 6.48277344 -3.54226562 7.02804687 -4.17578125 7.58984375 C-6 9 -6 9 -9 10 C-7.75537955 6.26613864 -6.08692325 5.35194152 -3 3 C-1.9826127 2.01769502 -0.97403883 1.02530403 0 0 Z " fill="#4140D1" transform="translate(200,500)"/>
<path d="M0 0 C4.875 1.75 4.875 1.75 6 4 C3.03 4 0.06 4 -3 4 C-2.01 2.68 -1.02 1.36 0 0 Z " fill="#4D4BE6" transform="translate(147,420)"/>
<path d="M0 0 C3.81684226 1.55500981 6.19195732 4.03595495 9 7 C8.67 7.66 8.34 8.32 8 9 C6.66079162 7.88200014 5.32877444 6.75538103 4 5.625 C2.88625 4.68527344 2.88625 4.68527344 1.75 3.7265625 C1.1725 3.15679688 0.595 2.58703125 0 2 C0 1.34 0 0.68 0 0 Z " fill="#4340C6" transform="translate(330,553)"/>
<path d="M0 0 C0.66 0.33 1.32 0.66 2 1 C1.34 2.98 0.68 4.96 0 7 C-1.32 5.68 -2.64 4.36 -4 3 C-2.68 2.01 -1.36 1.02 0 0 Z " fill="#504BD8" transform="translate(431,521)"/>
<path d="M0 0 C0.66 0.66 1.32 1.32 2 2 C1.34 2 0.68 2 0 2 C0 1.34 0 0.68 0 0 Z " fill="#5B56EE" transform="translate(208,457)"/>
<path d="" fill="#5A58EB" transform="translate(0,0)"/>
<path d="M0 0 C2 1 2 1 2 1 Z " fill="#5955EA" transform="translate(604,495)"/>
<path d="M0 0 C2 1 2 1 2 1 Z " fill="#5754EE" transform="translate(595,495)"/>
<path d="M0 0 C2 1 2 1 2 1 Z " fill="#5A58F1" transform="translate(516,495)"/>
<path d="M0 0 C2 1 2 1 2 1 Z " fill="#635EE8" transform="translate(710,479)"/>
<path d="" fill="#5C58DE" transform="translate(0,0)"/>
<path d="" fill="#5A53DD" transform="translate(0,0)"/>
<path d="" fill="#5852E5" transform="translate(0,0)"/>
<path d="" fill="#5856ED" transform="translate(0,0)"/>
<path d="" fill="#605DD8" transform="translate(0,0)"/>
<path d="" fill="#5751E4" transform="translate(0,0)"/>
<path d="" fill="#5855E6" transform="translate(0,0)"/>
<path d="" fill="#5956E9" transform="translate(0,0)"/>
<path d="" fill="#5853EB" transform="translate(0,0)"/>
<path d="" fill="#5755EF" transform="translate(0,0)"/>
<path d="" fill="#5452E5" transform="translate(0,0)"/>
<path d="" fill="#5551E8" transform="translate(0,0)"/>
<path d="" fill="#5A55ED" transform="translate(0,0)"/>
<path d="" fill="#5753F0" transform="translate(0,0)"/>
<path d="" fill="#5E56DE" transform="translate(0,0)"/>
<path d="" fill="#594EE7" transform="translate(0,0)"/>
<path d="" fill="#5857EB" transform="translate(0,0)"/>
<path d="" fill="#5752EB" transform="translate(0,0)"/>
<path d="" fill="#5853E8" transform="translate(0,0)"/>
<path d="" fill="#5957EB" transform="translate(0,0)"/>
<path d="" fill="#5D5BD8" transform="translate(0,0)"/>
<path d="" fill="#6159DA" transform="translate(0,0)"/>
<path d="" fill="#5756EB" transform="translate(0,0)"/>
<path d="" fill="#5753F0" transform="translate(0,0)"/>
<path d="" fill="#615CDF" transform="translate(0,0)"/>
<path d="" fill="#605DE2" transform="translate(0,0)"/>
<path d="" fill="#635BE0" transform="translate(0,0)"/>
<path d="" fill="#6158DF" transform="translate(0,0)"/>
<path d="" fill="#6260E0" transform="translate(0,0)"/>
<path d="" fill="#5A51EC" transform="translate(0,0)"/>
<path d="" fill="#5956E8" transform="translate(0,0)"/>
<path d="" fill="#5C59E9" transform="translate(0,0)"/>
<path d="" fill="#5756EA" transform="translate(0,0)"/>
<path d="" fill="#5C54F2" transform="translate(0,0)"/>
<path d="" fill="#605AE3" transform="translate(0,0)"/>
<path d="" fill="#5858E8" transform="translate(0,0)"/>
<path d="" fill="#5C58E9" transform="translate(0,0)"/>
<path d="" fill="#5B56EC" transform="translate(0,0)"/>
<path d="" fill="#5A56E9" transform="translate(0,0)"/>
<path d="" fill="#5A55E5" transform="translate(0,0)"/>
<path d="" fill="#5A54F0" transform="translate(0,0)"/>
<path d="" fill="#5D5CEA" transform="translate(0,0)"/>
<path d="" fill="#5A56ED" transform="translate(0,0)"/>
<path d="" fill="#5754EC" transform="translate(0,0)"/>
<path d="" fill="#5B56E8" transform="translate(0,0)"/>
<path d="" fill="#5953F2" transform="translate(0,0)"/>
<path d="" fill="#5C58EB" transform="translate(0,0)"/>
<path d="" fill="#5C55EC" transform="translate(0,0)"/>
<path d="" fill="#5D57EB" transform="translate(0,0)"/>
<path d="" fill="#5B59ED" transform="translate(0,0)"/>
<path d="" fill="#5654EC" transform="translate(0,0)"/>
<path d="" fill="#5955EF" transform="translate(0,0)"/>
<path d="" fill="#5956F1" transform="translate(0,0)"/>
<path d="" fill="#5B57ED" transform="translate(0,0)"/>
<path d="" fill="#5B56F0" transform="translate(0,0)"/>
<path d="" fill="#5758EF" transform="translate(0,0)"/>
<path d="" fill="#5E5BF1" transform="translate(0,0)"/>
<path d="" fill="#5957E9" transform="translate(0,0)"/>
<path d="" fill="#5551EB" transform="translate(0,0)"/>
<path d="" fill="#5B58E9" transform="translate(0,0)"/>
<path d="" fill="#5856EB" transform="translate(0,0)"/>
<path d="" fill="#5B54F0" transform="translate(0,0)"/>
<path d="" fill="#5D5BF0" transform="translate(0,0)"/>
<path d="" fill="#5957E9" transform="translate(0,0)"/>
<path d="" fill="#5B59ED" transform="translate(0,0)"/>
<path d="" fill="#5957E8" transform="translate(0,0)"/>
<path d="" fill="#5D58EE" transform="translate(0,0)"/>
<path d="" fill="#5955E2" transform="translate(0,0)"/>
<path d="" fill="#5956F1" transform="translate(0,0)"/>
<path d="" fill="#5C54EB" transform="translate(0,0)"/>
<path d="" fill="#5858EC" transform="translate(0,0)"/>
<path d="" fill="#5A54E5" transform="translate(0,0)"/>
<path d="" fill="#5955EA" transform="translate(0,0)"/>
<path d="" fill="#5B58EE" transform="translate(0,0)"/>
<path d="" fill="#635EE9" transform="translate(0,0)"/>
<path d="" fill="#5B57F0" transform="translate(0,0)"/>
<path d="" fill="#5B59EA" transform="translate(0,0)"/>
<path d="" fill="#5E58E2" transform="translate(0,0)"/>
<path d="" fill="#5E59E9" transform="translate(0,0)"/>
<path d="" fill="#5B5BE8" transform="translate(0,0)"/>
<path d="" fill="#615DE9" transform="translate(0,0)"/>
<path d="" fill="#615DEF" transform="translate(0,0)"/>
<path d="" fill="#5A56ED" transform="translate(0,0)"/>
<path d="" fill="#5955ED" transform="translate(0,0)"/>
<path d="" fill="#5F59EB" transform="translate(0,0)"/>
<path d="" fill="#6059E4" transform="translate(0,0)"/>
<path d="" fill="#6260DF" transform="translate(0,0)"/>
<path d="" fill="#5C57E6" transform="translate(0,0)"/>
<path d="" fill="#5D5BE5" transform="translate(0,0)"/>
<path d="" fill="#635EDB" transform="translate(0,0)"/>
<path d="" fill="#6560CF" transform="translate(0,0)"/>
<path d="" fill="#635BD5" transform="translate(0,0)"/>
<path d="" fill="#615EE0" transform="translate(0,0)"/>
<path d="" fill="#6059DB" transform="translate(0,0)"/>
<path d="" fill="#5655EC" transform="translate(0,0)"/>
<path d="" fill="#5856ED" transform="translate(0,0)"/>
<path d="" fill="#5855ED" transform="translate(0,0)"/>
<path d="" fill="#5855F0" transform="translate(0,0)"/>
<path d="" fill="#5E59E4" transform="translate(0,0)"/>
<path d="" fill="#5D5BE3" transform="translate(0,0)"/>
<path d="" fill="#5C56EE" transform="translate(0,0)"/>
<path d="" fill="#5757E5" transform="translate(0,0)"/>
<path d="" fill="#5F5CDC" transform="translate(0,0)"/>
<path d="" fill="#605BDC" transform="translate(0,0)"/>
<path d="" fill="#5F5DD9" transform="translate(0,0)"/>
<path d="" fill="#5757E6" transform="translate(0,0)"/>
<path d="" fill="#5D59E5" transform="translate(0,0)"/>
<path d="" fill="#5C58EB" transform="translate(0,0)"/>
<path d="" fill="#5F5EDD" transform="translate(0,0)"/>
<path d="" fill="#5C56E4" transform="translate(0,0)"/>
<path d="" fill="#5D58E4" transform="translate(0,0)"/>
<path d="" fill="#5E5CDA" transform="translate(0,0)"/>
<path d="" fill="#5A58E5" transform="translate(0,0)"/>
</svg>
